Patient4_TMGait_0pt4_03_right_12_EMG.mot
version=1
nRows=36
nColumns=33
inDegrees=no
endheader
time	1LAddLong	2LGlutMax	3LGlutMed	4LIliopsoas	5LSemiMemb	6LBicFemLong	7LRecFem	8LVastMed	9LVastLat	10LGasMed	11LTibAnt	12lTibPost	13LPeroneusLong	14LSol	15LExtDigLong	16LFlexDigLong	17RAddLong	18RGlutMax	19RGlutMed	20RIliopsoas	21RSemiMemb	22RBicFemLong	23RRecFem	24RVastMed	25RVastLat	26RGasMed	27RTibAnt	28RTibPost	29RPeroneusLong	30RSol	31RExtDigLong	32RFlexDigLong
14.73	0.016174	-0.098724	-0.11246	0.021973	0.031281	0.032654	-0.089722	-0.003662	0.16296	0.010834	-0.18707	-0.00351	-0.35568	0.048218	-0.16281	-0.031891	0.007019	0.25207	-0.3096	0.054169	0.14572	-0.06958	0.22553	-0.075226	-0.021973	-0.005188	0.61127	0.007477	0.083313	-0.046692	-0.000763	0.007172
14.731	0.01358	-0.079346	-0.10483	0.019684	0.008087	0.043945	-0.053864	-0.011292	0.081177	0.01236	-0.16693	0.003052	0.24155	0.034332	-0.01236	-0.0177	0.004272	0.27023	-0.17822	0.037537	0.13611	-0.060883	0.24262	-0.057373	-0.00824	0.002899	0.7196	-0.008392	-0.074615	0.015106	-0.00824	0.004883
14.732	0.00946	-0.017395	-0.068665	0.03006	-0.000305	0.036316	0.008087	-0.006561	-0.054016	0.040283	-0.079803	0.000153	0.22995	-0.079956	-0.1059	-0.011902	0.007324	0.23941	-0.10315	0.071869	0.14175	-0.054016	0.22018	-0.046387	-0.01236	0.006256	-0.034637	-0.006256	-0.085754	0.076447	-0.005493	-0.000916
14.733	-0.050659	-0.028229	-0.10971	0.00946	0.004578	0.026855	0.032349	0.001984	-0.048676	0.02533	0.038605	-0.001068	0.1738	-0.02533	-0.016937	-0.001678	0.006714	0.18692	-0.25696	0.007782	0.13626	-0.063019	0.18723	-0.038605	-0.03006	0.000916	-0.28748	-0.007324	-0.13748	0.074768	-0.003204	0.00061
14.734	-0.037842	-0.035248	0.15701	0.013733	-0.021667	0.066986	0.013885	0.007782	-0.005798	0.019989	0.10834	-0.000763	-0.089569	-0.076599	0.017395	-0.024414	0.011597	0.15671	-0.36057	-0.016327	0.13138	-0.050964	0.086975	-0.047455	-0.012817	-0.001984	-0.215	-0.008698	-0.32303	0.12863	-0.003357	0.001068
14.735	-0.041199	-0.05188	0.12192	0.016022	-0.071716	0.074005	-0.002289	0.003357	0.070038	0.023499	0.023041	0.001373	-0.21774	-0.074921	0.10681	-0.030365	0.000153	0.13489	-0.32761	-0.076141	0.13504	-0.042877	0.1384	-0.051422	-0.032654	-0.00824	-0.13412	-0.00824	-0.48126	0.1178	-0.009003	0.010529
14.736	-0.025024	-0.072784	0.041046	0.007629	-0.070496	-0.001373	0.001831	-0.002441	0.083618	0.036621	-0.086823	-0.014801	-0.003967	-0.014191	0.21027	0.001221	0.013428	0.11826	-0.14206	-0.094452	0.12528	-0.056152	0.16754	-0.02182	-0.028992	-0.005188	-0.35187	-0.003204	-0.27115	0.016479	-0.004425	0.002747
14.737	-0.016174	-0.072937	0.072479	0.010986	0.027924	-0.069885	0.034943	-0.004883	0.06424	0.046387	-0.21622	-0.00061	-0.17929	-0.026093	0.17517	0.002441	0.0177	0.12894	-0.11231	-0.14465	0.12512	-0.055084	0.2243	-0.05249	-0.02182	-0.000153	-0.11887	-0.004425	0.25757	-0.007629	0.007935	-0.00473
14.738	0.007629	-0.10056	-0.049286	0.02655	0.074005	-0.10086	-0.001678	-0.008698	0.058289	0.020905	-0.16617	0.007477	0.024567	0.005646	0.25864	-0.0177	0.020752	0.069275	-0.14679	-0.12558	0.12283	-0.062714	0.15488	-0.027161	-0.024719	0.004272	0.073853	-0.001526	0.22308	-0.020752	-0.001068	-0.000916
14.739	0.014191	-0.096893	-0.14587	0.002594	0.035095	-0.067291	0.024261	-0.002441	0.054321	-0.054474	-0.024872	0.002441	0.24139	0.070038	0.073853	-0.005188	0.055084	0.066528	-0.4422	0.007172	0.11963	-0.056305	0.16968	-0.07019	-0.020599	-0.005188	0.047455	-0.005188	0.19104	-0.015411	0.001373	0.002594
14.74	-0.006561	-0.042419	0.087433	-0.007172	0.044098	-0.065308	0.027771	0.002136	-0.08194	0	0.099182	-0.00061	0.30197	0.032196	0.064697	-0.00946	0.099487	0.090027	-0.24445	0.078583	0.10452	-0.050812	0.11231	-0.054932	-0.028839	0.001678	0.12726	-0.001221	0.000763	-0.009918	-0.004578	0.003815
14.741	-0.002594	-0.10101	0.021515	-0.005035	0.008087	-0.04303	0.071259	-0.003204	-0.096741	-0.028229	0.14816	-0.001068	0.17929	-0.019531	-0.12863	-0.012817	0.12985	0.072937	0.27512	0.10773	0.09491	-0.043793	0.14587	-0.055847	0.001068	0.003815	-0.17532	-0.001221	0.00885	-0.027466	-0.000305	0.000153
14.742	0.010986	-0.10391	-0.086517	-0.003662	-0.002594	-0.045319	0.067749	0.001068	-0.048828	0.020752	0.046692	-0.000305	-0.14282	0.07019	-0.059204	-0.014343	0.092773	0.058899	-0.19669	0.080109	0.085754	-0.034332	0.14404	-0.10529	0.006104	0.006104	-0.24796	-0.001831	-0.070038	-0.025635	-0.002899	0.004425
14.743	0.010529	-0.07782	-0.11032	0.007935	0.016937	-0.042114	0.021057	-0.005188	-0.054169	0.055237	-0.07019	-0.003967	-0.21683	0.11734	-0.12451	-0.006714	0.044556	0.055695	-0.41138	0.003204	0.084534	-0.045013	0.10071	-0.10239	-0.012512	0.005646	-0.14984	-0.001373	-0.006866	-0.021515	-0.001373	0.005646
14.744	0.015564	-0.045013	-0.12528	-0.003052	0.038452	-0.037842	-0.079041	0.003357	-0.046082	0.04776	-0.059509	0.000458	-0.11261	-0.003662	-0.18051	-0.010223	-0.026398	0.013885	-0.34225	0.026855	0.064087	-0.043945	0.056763	-0.10117	0.010376	0.001678	0.103	-0.000153	0.038757	-0.01709	-0.002899	0.000916
14.745	0.019989	-0.052032	0.034027	0.014648	0.069275	-0.011292	-0.1973	-0.00885	0.012665	0.054474	0.001068	-0.000763	-0.086975	-0.10376	-0.26779	-0.011292	-0.08728	0.006561	-0.68405	0.058899	0.07019	-0.030518	0.094604	-0.099182	0.00885	-0.013123	0.38238	0.000153	0.22263	-0.031433	-0.000458	0.00351
14.746	0.006104	-0.076141	0.052643	0.017242	0.006714	0.020142	-0.14938	-0.007172	0.048218	0.030975	0.039063	-0.003967	-0.063477	-0.087891	-0.022888	-0.03006	-0.094604	-0.01358	-0.51498	0.068359	0.089417	-0.030823	0.061646	-0.079346	0.009308	-0.01709	0.37552	0.003357	0.24536	-0.061035	-0.003662	-0.00061
14.747	-0.007782	-0.074463	-0.013885	0.008392	-0.013428	0.039978	-0.030823	-0.006866	0.044708	0.039368	0.12268	-0.001526	0.053558	-0.0383	0.19318	-0.018768	-0.076294	-0.005646	-0.32761	0.080872	0.094757	-0.023193	0.054169	-0.073547	0.02243	-0.013275	0.35004	0.001678	0.016479	-0.049591	-0.010681	0.006714
14.748	-0.009003	-0.073242	0.021057	0.007019	0.002747	0.024719	-0.051727	0.017242	0.009003	0.049133	0.20142	-0.00412	0.015869	0.1149	0.13382	-0.007324	-0.054626	0.008392	-0.25833	0.080414	0.10819	-0.028992	0.02182	-0.057983	-0.000916	-0.006714	0.10544	0.002289	-0.3035	-0.066071	-0.002289	0.003967
14.749	-0.009155	-0.10391	-0.079498	0.006409	-0.011902	0.012665	-0.066986	0.033264	0.031738	0.02533	0.21271	-0.001678	-0.10834	-0.014801	0.112	-0.012054	-0.012054	-0.035858	-0.33096	0.15121	0.11139	-0.017548	0.051575	-0.020294	-0.012665	-0.009918	0.15549	0.002289	-0.56519	-0.023041	-0.001373	0.001068
14.75	-0.00885	-0.12802	-0.097351	-0.012207	-0.000763	-0.042419	-0.039673	0.030823	-0.020752	0.010376	0.13153	0.000916	-0.12726	-0.16296	-0.025787	-0.011139	0.018311	-0.040741	-0.35446	0.18875	0.11688	-0.022583	0.05188	0.000153	-0.000458	-0.007477	0.30121	-0.000305	-0.26993	-0.085144	0.005493	0.000153
14.751	-0.005188	-0.11673	0.085602	-0.019379	0.015411	-0.024261	0.006256	0.013733	0.021667	-0.007629	-0.15015	-0.005646	-0.014038	-0.15579	-0.11215	0.002136	0.031891	-0.029602	-0.32791	0.05249	0.11292	-0.032654	0.103	-0.003815	-0.026093	0.003967	-0.10101	0.000305	0.30243	-0.16998	-0.00412	-0.000305
14.752	0.005646	-0.13763	0.001984	-0.003662	-0.020905	0.063171	0.007172	-0.006256	0.093994	0.008087	-0.088501	-0.000305	0.11337	-0.06073	-0.13397	-0.016937	0.035248	-0.04364	-0.31815	-0.097351	0.097656	-0.049438	0.11337	-0.011139	-0.005188	0.00061	-0.159	-0.002747	0.35919	-0.13962	0.003357	-0.005951
14.753	0.000153	-0.12192	-0.059967	0.009766	-0.052032	0.081177	-0.00061	-0.014801	0.067902	0.00946	-0.10132	0.006409	0.31143	-0.076904	-0.094299	-0.011444	-0.002747	-0.063019	-0.31754	-0.046387	0.076447	-0.049744	0.11841	-0.036926	-0.015717	0.009003	-0.091095	0.000305	0.14679	-0.072632	-0.002899	-0.005035
14.754	0.004272	-0.10696	-0.097504	0.037384	-0.018311	0.075531	0.042267	-0.006104	-0.011597	0.018311	-0.028076	0.00351	0.26962	-0.008545	0.020294	-0.011749	-0.040741	-0.05127	-0.16968	0.042572	0.081177	-0.052795	0.1091	-0.055542	-0.013733	0.00473	-0.31891	0.002441	0.17883	-0.061493	-0.003815	-0.00351
14.755	0.008698	-0.13214	-0.007935	0.014343	0.002899	0.017395	-0.020294	-0.014648	-0.004272	0.075378	0.050812	0.014801	-0.14832	0.029449	0.056763	-0.008545	-0.040283	-0.027313	-0.29175	0.064697	0.071106	-0.055542	0.040588	-0.072327	-0.007935	-0.002136	-0.47348	-0.00061	0.018768	-0.024872	-0.003357	-0.009003
14.756	0.007935	-0.13321	-0.05661	-0.000305	0.1236	0.010376	-0.039978	-0.004578	-0.025635	0.023041	0.007782	0.009613	0.10178	0.058594	-0.065918	-0.017395	-0.042877	-0.006714	-0.1474	0.022125	0.086517	-0.050354	0.059357	-0.10788	-0.010681	-0.007019	-0.28305	-0.002289	-0.22797	0.000458	0.000916	0.001526
14.757	0.010834	-0.12329	-0.061646	-0.009308	0.13702	0.027313	-0.044403	-0.006104	-0.032959	0.016174	-0.020294	0.005035	-0.27557	-0.045166	-0.15961	-0.018463	-0.004272	-0.046692	-0.21744	-0.030212	0.086823	-0.059052	0.092621	-0.11948	-0.010376	-0.005341	-0.28976	-0.001373	-0.1297	-0.046234	-0.00473	-0.007477
14.758	-0.000458	-0.10635	-0.003204	-0.00351	0.076752	0.046844	-0.023346	-0.000458	-0.057678	0.056915	0.007629	-0.005341	-0.52597	0.018463	-0.027161	-0.013428	0.010223	0.032501	-0.15549	-0.092163	0.090485	-0.031433	0.1181	-0.10239	-0.017853	-0.008392	-0.032654	-0.000305	-0.16922	-0.046844	-0.006714	-0.01358
14.759	-0.003662	-0.0737	0.05127	0.015564	-0.016785	0.00885	-0.071411	-0.025482	-0.045471	0.041809	0.057678	-0.006104	-0.077515	0.037384	0.096741	0.019989	0.03479	0.053253	-0.018158	-0.088196	0.082397	-0.029144	-0.005035	-0.094299	-0.01709	-0.000305	0.19516	-0.000458	-0.095367	0.032196	-0.004425	-0.003357
14.76	0.006714	-0.091095	0.059662	-0.001526	-0.074615	0.000458	-0.11627	-0.006714	-0.040131	0.030823	0.063477	-0.002136	-0.050201	-0.089569	0.13245	-0.001373	0.044708	-0.02121	-0.2243	-0.056	0.087891	-0.028381	0.0383	-0.10574	-0.010376	-0.007935	0.18341	-0.001373	-0.02182	0.069427	0.002136	-0.009003
14.761	0.010071	-0.11887	0.019379	0.007019	-0.033417	-0.014191	-0.15106	0.027008	0.056915	-0.00824	0.040588	0.006256	0.016327	-0.08255	0.14252	-0.012817	0.055389	-0.033569	-0.49118	-0.14557	0.092773	-0.012054	0.12619	-0.068359	-0.012817	-0.002899	0.12558	-0.000458	0.08667	0.008392	-0.004425	-0.002289
14.762	0.008698	-0.10056	-0.00061	-0.004578	0.019836	-0.018921	-0.065155	0.023193	0.14465	-0.019836	0.085754	0.00946	-0.013275	-0.1416	0.075684	0.000916	0.048828	-0.057983	-0.50537	-0.31494	0.090637	-0.01297	0.24124	-0.074158	-0.032043	-0.003815	0.14145	0.002136	0.11444	-0.009003	-0.003815	-0.013123
14.763	-0.005188	-0.062866	0.055084	0.002441	0.068512	-0.0354	0.016785	0.007629	0.025482	-0.001221	0.1062	0.005188	0.020447	0.002136	0.03006	-0.019379	0.046082	0.005188	-0.18814	-0.28168	0.06485	-0.002136	0.21393	-0.049896	-0.034637	-0.005341	0.2211	0.002289	0.09079	0.065613	-0.006409	-0.011902
14.764	-0.001678	-0.027618	0.0354	0.009308	0.043793	-0.018463	-0.013275	-0.005493	0.025177	0.010834	0.1152	0.008392	-0.10574	-0.042419	0.077362	-0.003204	0.027313	-0.025635	-0.076141	-0.1886	0.079651	-0.010071	0.21072	-0.029602	-0.021515	0	0.25772	0.001373	0.10864	0.035706	-0.00061	-0.01236
14.765	0.004578	-0.068207	0.063629	0.018616	0.016022	-0.050049	-0.01358	-0.016022	0.028076	-0.018616	0.026855	0.005035	-0.075531	-0.13321	0.011139	-0.022736	0.025177	-0.039368	-0.21316	0.030212	0.065308	0.001831	0.15381	-0.090027	-0.013733	0.009613	-0.44632	-0.002441	0.17578	0.003967	-0.001984	-0.013123
